<?xml version="1.0" encoding="UTF-8"?> <svg xmlns="http://www.w3.org/2000/svg" xmlns:xlink="http://www.w3.org/1999/xlink" viewBox="0 0 393.56 76.37"><defs><style>.cls-1{fill:#fff;}.cls-2{fill:url(#linear-gradient);}</style><linearGradient id="linear-gradient" x1="369.8" y1="53.96" x2="275.04" y2="19.87" gradientUnits="userSpaceOnUse"><stop offset="0" stop-color="#58b6e7"></stop><stop offset="1" stop-color="#0099d8"></stop></linearGradient></defs><g id="Capa_2" data-name="Capa 2"><g id="Layer_1" data-name="Layer 1"><path class="cls-1" d="M27.09,9.54c.59,0,.78.19.78.77l-.71,5.37c0,.58-.13.78-.84.78H7.76V31.13H24.64c.58,0,.77.2.77.78l-.71,5.37c0,.58-.13.77-.84.77H7.76V59.13c0,.58-.19.78-.91.78H.78c-.59,0-.78-.2-.78-.78V10.38c0-.58.26-.84.78-.84Z"></path><path class="cls-1" d="M36.4,23.76c0-.45.2-.71.71-.9a34.06,34.06,0,0,1,11.06-1.75c4.92,0,9.12,1,11.71,3.43C62.14,26.67,63,29.65,63,34.3V51.37a61.34,61.34,0,0,0,.52,7.7c.07.64-.19.84-.71.84H58a1,1,0,0,1-1-.71c-.2-.65-.46-1.55-.72-2.72A13.41,13.41,0,0,1,46,60.62c-3.81,0-7.11-.91-9.18-2.65-2.26-1.94-3.43-4.92-3.43-8.6v-.91c0-4.33,1.56-7.56,4.34-9.18S44,37.47,48.56,37.47c1.75,0,5.11.13,7,.26V34.88c0-2.45-.38-4.52-1.61-5.81s-3.5-2-6.53-2a44,44,0,0,0-10.09,1.49c-.52.13-.91,0-.91-.65Zm4.53,25.48a5.17,5.17,0,0,0,1.68,4.2,6.92,6.92,0,0,0,4.46,1.36,11.51,11.51,0,0,0,8.47-3.23V43.48a66.64,66.64,0,0,0-6.66-.25c-2.78,0-4.78.13-6.14,1-1.16.71-1.81,2.06-1.81,4.59Z"></path><path class="cls-1" d="M80,21.82c.52,0,.91.2,1,.78l.26,2.07A20.1,20.1,0,0,1,92.4,21.11c3.81,0,7,.91,9.12,2.72,2.45,2.07,3.55,5.11,3.55,10V59.07c0,.58-.26.84-.84.84H98.41a.74.74,0,0,1-.78-.84V35.92c0-3.88-.19-5.24-1.81-6.79-1.35-1.23-3.16-1.68-5.88-1.68a16.05,16.05,0,0,0-8.34,2.39V59.07c0,.58-.26.84-.91.84H74.94a.74.74,0,0,1-.78-.84V22.66a.74.74,0,0,1,.78-.84Z"></path><path class="cls-1" d="M117.23,23.76c0-.45.19-.71.71-.9A34,34,0,0,1,129,21.11c4.92,0,9.12,1,11.71,3.43,2.26,2.13,3.17,5.11,3.17,9.76V51.37a61.34,61.34,0,0,0,.51,7.7c.07.64-.19.84-.71.84h-4.85a1,1,0,0,1-1-.71c-.2-.65-.46-1.55-.71-2.72a13.45,13.45,0,0,1-10.29,4.14c-3.81,0-7.11-.91-9.18-2.65-2.26-1.94-3.42-4.92-3.42-8.6v-.91c0-4.33,1.55-7.56,4.33-9.18s6.33-1.81,10.86-1.81c1.75,0,5.11.13,7,.26V34.88c0-2.45-.38-4.52-1.61-5.81s-3.49-2-6.53-2a44,44,0,0,0-10.09,1.49c-.52.13-.9,0-.9-.65Zm4.52,25.48a5.17,5.17,0,0,0,1.68,4.2,6.92,6.92,0,0,0,4.46,1.36,11.5,11.5,0,0,0,8.47-3.23V43.48a66.44,66.44,0,0,0-6.66-.25c-2.78,0-4.78.13-6.14,1-1.16.71-1.81,2.06-1.81,4.59Z"></path><path class="cls-1" d="M161.39,7.79l-5.5.91a.84.84,0,0,0-.78,1V59.13c0,.58.2.78.78.78h5.75c.72,0,.91-.2.91-.78V8.57C162.55,7.92,162.1,7.66,161.39,7.79Z"></path><path class="cls-1" d="M172.82,46.59V35.27c0-4.72,1.36-8.34,4.08-10.73s6.79-3.43,11.64-3.43A36.21,36.21,0,0,1,198,22.28c.45.12.64.38.64,1v4.14c0,.77-.32.9-1,.71a39.38,39.38,0,0,0-8.08-1c-3,0-5.5.45-6.92,1.81-1.68,1.49-2.26,4-2.26,7.24v9.31c0,5.63,1.81,9,8.85,9a30.73,30.73,0,0,0,8.67-1.23c.71-.26,1.23,0,1.1.84L198.36,58a1.52,1.52,0,0,1-1.09,1.42,28.82,28.82,0,0,1-8.54,1.23C177.93,60.62,172.82,56.22,172.82,46.59Z"></path><path class="cls-1" d="M209.55,23.76c0-.45.19-.71.71-.9a34.06,34.06,0,0,1,11.06-1.75c4.91,0,9.11,1,11.7,3.43,2.26,2.13,3.17,5.11,3.17,9.76V51.37a59.51,59.51,0,0,0,.52,7.7c.06.64-.2.84-.71.84h-4.85a1,1,0,0,1-1-.71c-.19-.65-.45-1.55-.71-2.72a13.42,13.42,0,0,1-10.28,4.14c-3.82,0-7.11-.91-9.18-2.65-2.27-1.94-3.43-4.92-3.43-8.6v-.91c0-4.33,1.55-7.56,4.33-9.18s6.34-1.81,10.87-1.81c1.74,0,5.1.13,7,.26V34.88c0-2.45-.39-4.52-1.62-5.81s-3.49-2-6.53-2a44,44,0,0,0-10.09,1.49c-.51.13-.9,0-.9-.65Zm4.53,25.48a5.17,5.17,0,0,0,1.68,4.2,6.88,6.88,0,0,0,4.46,1.36,11.53,11.53,0,0,0,8.47-3.23V43.48a66.64,66.64,0,0,0-6.66-.25c-2.78,0-4.79.13-6.14,1-1.17.71-1.81,2.06-1.81,4.59Z"></path><path class="cls-2" d="M287.28,11.09C296.94.39,309.76,0,317.45,0l76.11.14v1.1a5,5,0,0,1-4.93,4.67h.24L311.2,5.77c-15.56,0-23.2,6.05-23.2,6.05Zm-5.91,13C291,13.33,303.85,12.93,311.54,13l76.27.14v1.1a4.69,4.69,0,0,1-4.64,4.67h-.05l-77.83-.14c-15.65,0-23.17,6.08-23.17,6.08ZM275.45,37c9.65-10.71,22.47-11.1,30.17-11.09l53.85.09v1.1a4.67,4.67,0,0,1-4.64,4.67h-.05l-55.41-.09c-15.76,0-23.16,6.09-23.16,6.09Zm-5.87,12.94c9.65-10.71,22.47-11.11,30.17-11.09l53.89.09V40A4.68,4.68,0,0,1,349,44.69H349L293.5,44.6c-16.58,0-23.29,6-23.29,6ZM263.8,62.75C273.46,52,286.28,51.64,294,51.66h14.39v1.1a4.68,4.68,0,0,1-4.64,4.67h-16c-16.14,0-23.27,6-23.27,6ZM258,75.62c9.65-10.7,22.48-11.1,30.17-11.09l14.5,0v1.1c0,2.56-2.48,4.65-5,4.67H298l-16,0c-15.73,0-23.18,6.07-23.18,6.07Z"></path></g></g></svg> 